<?xml version="1.0" encoding="UTF-8" standalone="no"?>
<svg
   version="1.1"
   id="Layer_1"
   x="0px"
   y="0px"
   width="2570.4172"
   viewBox="0 0 2570.4172 447.67722"
   enable-background="new 0 0 2478 374"
   xml:space="preserve"
   sodipodi:docname="logo-vr-new.svg"
   inkscape:version="1.4.2 (ebf0e940, 2025-05-08)"
   inkscape:export-filename="logo-vr-white-no-background.png"
   inkscape:export-xdpi="96"
   inkscape:export-ydpi="96"
   height="447.67722"
   xmlns:inkscape="http://www.inkscape.org/namespaces/inkscape"
   xmlns:sodipodi="http://sodipodi.sourceforge.net/DTD/sodipodi-0.dtd"
   xmlns="http://www.w3.org/2000/svg"
   xmlns:svg="http://www.w3.org/2000/svg"><defs
   id="defs688" /><sodipodi:namedview
   id="namedview688"
   pagecolor="#ffffff"
   bordercolor="#000000"
   borderopacity="0.25"
   inkscape:showpageshadow="2"
   inkscape:pageopacity="0.0"
   inkscape:pagecheckerboard="0"
   inkscape:deskcolor="#d1d1d1"
   inkscape:zoom="0.36226924"
   inkscape:cx="1320.8408"
   inkscape:cy="149.06041"
   inkscape:window-width="1712"
   inkscape:window-height="785"
   inkscape:window-x="0"
   inkscape:window-y="39"
   inkscape:window-maximized="0"
   inkscape:current-layer="layer4"
   inkscape:export-bgcolor="#40404000" />
















































































































































































































































































































































































































































































































































































































































































































<g
   inkscape:groupmode="layer"
   id="layer3"
   inkscape:label="pismo"
   transform="translate(-3.7391226,9.5756036)"
   style="display:inline"><path
     fill="#fefefe"
     opacity="1"
     stroke="none"
     d="m 2007.7167,133.09331 c 19.4979,0 38.4966,-0.0824 57.4926,0.11119 2.2103,0.0225 4.8624,1.04705 6.5328,2.50012 10.8093,9.40236 21.4695,18.98057 31.9919,28.70347 1.4764,1.36447 2.7127,3.82617 2.7359,5.79544 0.2087,17.82887 0.206,35.66217 0,53.49122 -0.023,1.99097 -1.1841,4.47148 -2.6416,5.85952 -7.5762,7.21434 -15.4192,14.1481 -23.47,21.4523 9.1082,8.18872 18.1274,16.05938 26.801,24.29446 1.7637,1.67444 3.0979,4.70505 3.1431,7.13825 0.2827,15.15972 0.2349,30.32852 0.032,45.49081 -0.027,2.01599 -1.0132,4.60266 -2.4658,5.92413 -11.9531,10.87329 -24.0866,21.55036 -36.2742,32.16181 -1.3696,1.19253 -3.4138,2.27984 -5.1485,2.28506 -36.3283,0.10941 -72.6569,0.056 -108.9855,0.0253 -0.1409,-1.2e-4 -0.2819,-0.13449 -0.7241,-0.3595 0,-78.04458 0,-156.24293 0,-234.87355 16.8994,0 33.6876,0 50.9758,0 m 42.5387,89.1249 c 0,-12.86353 0,-25.72705 0,-38.54383 -12.952,0 -25.0314,0 -37.2787,0 0,14.04688 0,27.87306 0,41.999 11.7495,0 23.1947,0.0568 34.6366,-0.1106 0.8916,-0.013 1.7604,-1.59505 2.6421,-3.34457 m -37.5819,76.49987 c 0,6.42087 0,12.84174 0,19.31278 12.7314,0 24.9454,0 37.3645,0 0,-13.95291 0,-27.6771 0,-41.52973 -12.5446,0 -24.8766,0 -37.3645,0 0,7.28779 0,14.25251 0,22.21695 z"
     id="path668"
     inkscape:label="B"
     style="display:inline" /><path
     fill="#fcfcfc"
     opacity="1"
     stroke="none"
     d="m 1746.0208,161.2183 c 0,-8.46384 0,-16.42768 0,-24.65657 18.8635,0 37.296,0 56.2749,0 0,61.47926 0,123.03672 0,184.89979 12.624,0 24.7106,0 37.3216,0 0,-61.38695 0,-122.92766 0,-184.81928 19.0642,0 37.6093,0 56.679,0 0,1.83419 0,3.62676 0,5.41933 0,63.82822 -0.025,127.65645 0.07,191.48455 0.01,3.44522 -0.8634,5.83993 -3.5393,8.14685 -10.5985,9.13739 -20.9121,18.60565 -31.5206,27.73102 -1.6872,1.45132 -4.3389,2.49026 -6.5546,2.5083 -22.3301,0.18173 -44.663,0.19272 -66.9927,-0.01 -2.3626,-0.0214 -5.1797,-1.16607 -6.9874,-2.71908 -10.6153,-9.11856 -20.9188,-18.59955 -31.5055,-27.75247 -2.5486,-2.20356 -3.3086,-4.51496 -3.3041,-7.74637 0.081,-57.32871 0.059,-114.65758 0.059,-172.48642 z"
     id="path670"
     inkscape:label="U2" /><path
     fill="#fefefe"
     opacity="1"
     stroke="none"
     d="m 1019.4368,372.03498 c -1.9483,-0.91202 -3.6518,-1.6145 -4.9605,-2.76587 -10.7547,-9.46268 -21.49383,-18.9455 -32.06872,-28.60715 -1.37006,-1.2518 -2.51856,-3.55682 -2.5221,-5.3764 -0.12713,-65.47913 -0.10632,-130.95853 -0.0992,-196.4379 6e-5,-0.64668 0.09,-1.29335 0.16046,-2.24164 18.64124,0 37.18286,0 56.07016,0 0,61.61615 0,123.04225 0,184.82175 12.5758,0 24.8146,0 37.5154,0 0,-61.49351 0,-123.03471 0,-184.85349 18.8629,0 37.2698,0 56.1248,0 0.077,1.52174 0.2271,3.11144 0.2273,4.70116 0.012,64.31308 -0.01,128.62618 0.072,192.93913 0,3.06885 -0.7576,5.18244 -3.1566,7.2548 -10.7129,9.25445 -21.158,18.8193 -31.8937,28.04641 -1.6736,1.43848 -4.3451,2.39792 -6.564,2.41477 -22.8248,0.17294 -45.6514,0.10598 -68.9051,0.10443 z"
     id="path671"
     inkscape:label="U1" /><path
     fill="#fdfdfd"
     opacity="1"
     stroke="none"
     d="m 401.73875,222.14644 c 10.55542,51.02672 21.05863,101.63115 31.64011,152.61251 -18.95511,0 -37.36175,0 -56.23367,0 -2.12592,-10.793 -4.26548,-21.65525 -6.49381,-32.96823 -15.1181,0 -30.07193,-0.0709 -45.02115,0.15933 -0.99691,0.0154 -2.543,2.18872 -2.84146,3.57236 -1.85806,8.61395 -3.42273,17.29098 -5.11456,25.94125 -0.21866,1.11798 -0.6096,2.2023 -0.94479,3.38721 -18.46651,0 -36.74627,0 -55.63594,0 16.21328,-78.57901 32.36447,-156.85708 48.53327,-235.22052 25.15629,0 49.94404,0 75.01081,0 5.69424,27.41876 11.37161,54.75628 17.10119,82.51609 m -52.04486,9.56435 c -0.76819,-3.88268 -1.5364,-7.76533 -2.30462,-11.64801 -0.24402,9.5e-4 -0.48801,0.002 -0.73203,0.003 -4.4295,23.56915 -8.85898,47.13831 -13.32635,70.90906 9.55688,0 18.35113,0 27.65997,0 -3.76666,-19.64631 -7.48315,-39.03122 -11.29697,-59.26392 z"
     id="path672"
     inkscape:label="A1" /><path
     fill="#fefefe"
     opacity="1"
     stroke="none"
     d="m 2268.7655,147.13709 c 8.3443,40.30182 16.6397,80.18195 24.92,120.06509 6.8942,33.20798 13.7717,66.41941 20.652,99.63022 0.1661,0.80161 0.2723,1.61554 0.4737,2.82999 -18.7705,0 -37.2957,0 -56.1577,0 -2.1043,-10.73956 -4.2398,-21.63928 -6.416,-32.74658 -15.8123,0 -31.4217,0 -47.2891,0 -2.1463,10.94452 -4.2839,21.84567 -6.4546,32.91449 -18.606,0 -37.0481,0 -55.8689,0 16.1946,-78.47992 32.3452,-156.74848 48.532,-235.19095 25.0495,0 49.8108,0 74.9729,0 0.8625,4.03728 1.7212,8.05734 2.6357,12.49774 m -50.0803,118.47269 c -1.2581,6.68478 -2.5161,13.36956 -3.7959,20.17065 9.2798,0 18.3176,0 27.6033,0 -4.5435,-23.76401 -9.0181,-47.16662 -13.4927,-70.56926 -0.2832,0.0479 -0.5664,0.0959 -0.8499,0.14377 -3.1232,16.46719 -6.2468,32.93439 -9.4648,50.25484 z"
     id="path673"
     inkscape:label="A2" /><path
     fill="#fefefe"
     opacity="1"
     stroke="none"
     d="m 496.56316,270.37479 c -7.07962,-6.36015 -14.03354,-12.33946 -20.61035,-18.70819 -1.64359,-1.59158 -2.90885,-4.42934 -2.93055,-6.70784 -0.21414,-22.4913 -0.20367,-44.9861 -0.009,-67.47775 0.0185,-2.12944 1.18186,-4.82865 2.73508,-6.27155 10.49442,-9.74905 21.16577,-19.31282 31.9743,-28.71299 1.67615,-1.45772 4.34198,-2.48511 6.55988,-2.50293 22.49188,-0.18065 44.98636,-0.17887 67.4783,-0.002 2.22321,0.0174 4.90625,0.99129 6.57501,2.44224 10.80866,9.39754 21.43909,19.00251 31.99799,28.68128 1.3067,1.1978 2.57934,3.21651 2.6189,4.88443 0.24096,10.1517 0.1203,20.31199 0.1203,30.80633 -18.74445,0 -37.28174,0 -56.13721,0 0,-5.36702 0,-10.64386 0,-16.23313 -12.54373,0 -24.77686,0 -37.32266,0 0,13.70959 0,27.44422 0,41.76936 5.31177,0 10.76049,-3e-5 16.20922,0 11.99646,7e-5 23.99479,-0.10806 35.98752,0.10321 2.081,0.0366 4.58234,0.91453 6.13508,2.26886 11.04571,9.63388 21.94531,19.4382 32.74035,29.35271 1.26691,1.16355 2.27783,3.32356 2.28864,5.02876 0.14843,23.32547 0.14947,46.65256 -0.003,69.97796 -0.0112,1.70075 -1.06402,3.85544 -2.34338,5.01459 -10.73847,9.72986 -21.59174,19.33579 -32.55884,28.80725 -1.46655,1.26651 -3.75739,2.21439 -5.67377,2.22711 -22.82553,0.15155 -45.6528,0.14863 -68.47848,0.006 -1.92331,-0.012 -4.24292,-0.85376 -5.69309,-2.10455 -10.97211,-9.46381 -21.81555,-19.07898 -32.5719,-28.78787 -1.30716,-1.17984 -2.59829,-3.18039 -2.6376,-4.8306 -0.24164,-10.14084 -0.12112,-20.29028 -0.12112,-30.79385 18.77026,0 37.31954,0 56.27795,0 0,5.24109 0,10.52066 0,16.13827 12.61792,0 24.83536,0 37.33822,0 0,-13.72512 0,-27.45727 0,-41.71057 -10.46688,0 -20.90078,0 -31.33465,0 -1.83279,0 -3.70642,-0.25079 -5.49188,0.04 -13.38053,2.17886 -24.39994,-1.73032 -33.11972,-12.70383 z"
     id="path674"
     inkscape:label="S1" /><path
     fill="#fefefe"
     opacity="1"
     stroke="none"
     d="m 2412.8622,317.45933 c 11.9717,0.007 23.4561,0.007 35.2715,0.007 0,-14.01025 0,-27.73904 0,-42.1224 -3.4275,0 -6.8623,-4e-5 -10.2971,-4e-5 -13.9959,0 -27.9934,0.10978 -41.9859,-0.11254 -2.2241,-0.0353 -4.886,-1.03333 -6.561,-2.48896 -10.8118,-9.39503 -21.4749,-18.96545 -31.99,-28.69136 -1.4597,-1.35017 -2.5815,-3.8677 -2.5969,-5.8547 -0.1787,-22.99176 -0.1702,-45.9858 -0.01,-68.97777 0.013,-1.83992 1.0727,-4.17217 2.4311,-5.42354 10.658,-9.81796 21.4487,-19.49563 32.365,-29.02546 1.5623,-1.36392 4.0144,-2.39425 6.0635,-2.4095 22.6587,-0.16862 45.3196,-0.16646 67.9783,-0.004 2.0598,0.0148 4.541,0.96623 6.0939,2.32184 11.0418,9.63933 21.9224,19.46452 32.7588,29.33519 1.0926,0.9951 2.1802,2.67401 2.2049,4.05462 0.1845,10.29581 0.1003,20.59642 0.1003,31.14659 -18.7512,0 -37.1611,0 -56.062,0 0,-5.18797 0,-10.42553 0,-16.04083 -12.7146,0 -24.948,0 -37.5249,0 0,13.53849 0,27.28197 0,41.79494 1.4111,0 2.9883,0 4.5657,0 15.6621,0 31.3259,-0.12103 46.9841,0.12225 2.5315,0.0393 5.5713,1.07813 7.4675,2.71036 10.855,9.34399 21.4954,18.94157 32.0352,28.64182 1.3598,1.25178 2.4165,3.59048 2.4292,5.43389 0.1623,23.15856 0.1655,46.31914 -0.01,69.47759 -0.014,1.80948 -1.212,4.08005 -2.5899,5.33441 -10.4685,9.53061 -21.0383,18.95545 -31.7912,28.16272 -1.814,1.55326 -4.6541,2.66358 -7.0318,2.68491 -22.3249,0.20019 -44.6531,0.19757 -66.978,0.004 -2.3787,-0.0207 -5.2297,-1.06387 -7.0354,-2.60238 -10.7744,-9.1799 -21.3301,-18.61777 -31.8838,-28.05323 -1.1399,-1.01907 -2.5339,-2.56469 -2.5598,-3.89068 -0.2088,-10.6182 -0.1165,-21.24231 -0.1165,-32.03473 18.8865,0 37.3035,0 56.1717,0 0,4.44229 -0.1128,8.74353 0.074,13.03171 0.051,1.17404 1.0002,2.30899 2.0244,3.46869 z"
     id="path675"
     inkscape:label="S2" /><path
     fill="#fefefe"
     opacity="1"
     stroke="none"
     d="m 1216.3732,359.61985 c -15.5817,-75.48099 -31.049,-150.55092 -46.5919,-225.9876 18.579,0 36.9481,0 55.9034,0 9.7073,50.69753 19.4636,101.65146 29.2199,152.6054 0.5394,0.0215 1.0787,0.0429 1.618,0.0644 9.749,-50.92076 19.4981,-101.84151 29.2653,-152.85739 18.7243,0 37.1886,0 56.2606,0 -16.2522,78.63945 -32.4526,157.02832 -48.6891,235.59201 -24.967,0 -49.7585,0 -75.0396,0 -0.5928,-2.91348 -1.2127,-5.95963 -1.9466,-9.41681 z"
     id="path676"
     inkscape:label="V2" /><path
     fill="#fefefe"
     opacity="1"
     stroke="none"
     d="m 208.80571,296.33201 c -5.24171,25.46853 -10.42529,50.5173 -15.65514,75.78961 -24.98332,0 -49.74985,0 -75.12504,0 -16.10565,-78.02793 -32.253412,-156.25989 -48.461697,-234.78507 18.720187,0 37.144747,0 55.910957,0 9.86771,51.59505 19.72946,103.15894 29.59121,154.72284 0.2668,0.0538 0.53361,0.10761 0.80041,0.16141 9.88165,-51.61943 19.76329,-103.23886 29.66441,-154.95998 18.77037,0 37.22516,0 56.21083,0 -2.41288,11.84476 -4.75303,23.48594 -7.15863,35.11356 -8.38694,40.53926 -16.79597,81.07394 -25.20239,121.60918 -0.13493,0.65066 -0.3429,1.28613 -0.57492,2.34845 z"
     id="path677"
     inkscape:label="V1" /><path
     fill="#fefefe"
     opacity="1"
     stroke="none"
     d="m 897.71654,367.03699 c -32.78961,0 -65.07929,0 -97.70777,0 0,-78.57315 0,-156.89186 0,-235.42032 18.53894,0 36.93933,0 55.6897,0 0,61.6186 0,123.02225 0,184.87098 25.08466,0 49.82813,0 74.94,0 0,16.97818 0,33.51483 0,50.54934 -10.85687,0 -21.63934,0 -32.92193,0 z"
     id="path678"
     inkscape:label="L" /><path
     fill="#fefefe"
     opacity="1"
     stroke="none"
     d="m 739.59947,148.23934 c 0,74.77415 0,149.0526 0,223.56453 -18.9234,0 -37.34057,0 -56.05005,0 0,-78.45496 0,-156.71195 0,-235.23967 18.44477,0 36.88746,0 56.05005,0 0,3.66768 0,7.42355 0,11.67514 z"
     id="path679"
     inkscape:label="I" /><path
     fill="#fefefe"
     opacity="1"
     stroke="none"
     d="m 2383.3017,79.600158 c -7.7635,-15.791672 -15.3265,-31.267617 -23.2632,-47.508681 12.6526,0 28.8942,-0.536625 36.4558,-0.14833 7.5616,0.388295 8.5072,-0.01078 8.9224,0.955469 21.864,50.884256 14.7001,35.197262 21.7504,50.700359 5.9766,-13.063946 15.5887,-38.986372 20.0672,-51.848997 0,0 -0.2672,-0.07733 18.2961,0.103792 28.9007,0.281988 18.8335,0.237707 28.8233,0.237707 -0.8064,1.922167 -1.2984,3.285633 -1.9334,4.578675 -11.2756,22.95799 -22.6225,45.881315 -33.7915,68.891058 -1.4394,2.96562 -3.1011,3.97211 -6.4241,3.93236 -16.6604,-0.19933 -33.3259,-0.21138 -49.9858,0.008 -3.3945,0.0448 -4.9961,-1.08007 -6.3535,-4.02291 -3.9641,-8.593442 -8.2212,-17.051884 -12.5637,-25.878979 z"
     id="path680"
     inkscape:label="hacek"
     sodipodi:nodetypes="cccsccsccsssscc" /><path
     fill="#fdfdfd"
     opacity="1"
     stroke="none"
     d="m 1089.917,67.21849 c -10e-5,11.823906 0.1104,23.149978 -0.1122,34.46951 -0.036,1.82994 -1.0792,4.18539 -2.4569,5.35888 -13.1859,11.23235 -13.2353,11.17435 -30.6177,11.17433 -17.847,-3e-5 -17.8883,0.0488 -31.5248,-11.50258 -1.2668,-1.07306 -2.2171,-3.27327 -2.2299,-4.95841 -0.1523,-19.982198 -0.1528,-39.966382 4e-4,-59.948564 0.013,-1.678389 0.9831,-3.862289 2.25,-4.939438 13.765,-11.70411 13.8054,-11.6566 31.9285,-11.656596 17.41,2e-6 17.4526,-0.0478 30.4499,11.53025 1.2566,1.119365 2.1649,3.287284 2.2112,4.99613 0.2251,8.320337 0.1015,16.650079 0.1015,25.476488 m -25.1023,-19.364685 c -0.6138,-0.891457 -1.1945,-2.526841 -1.8466,-2.55584 -4.8952,-0.217655 -9.8045,-0.118553 -14.6861,-0.118553 0,18.071842 0,35.446167 0,52.825462 5.6534,0 11.0249,0 16.5331,0 0,-16.621361 0,-32.895771 -4e-4,-50.151069 z"
     id="path681"
     inkscape:label="krouzek"
     style="display:none" /><path
     fill="#fbfbfb"
     opacity="1"
     stroke="none"
     d="m 2256.0038,101.5619 c -0.089,0.0185 -4.6361,10.55949 -4.6361,10.55949 -4.5084,-0.0393 -8.4265,-0.0723 -11.8563,-0.1 -23.9843,-0.19351 -24.0859,-0.12603 -35.1621,-0.12603 0.7241,-1.84626 1.238,-3.30569 1.8593,-4.71796 10.8296,-24.612457 21.6231,-49.241367 32.6221,-73.777927 0.75,-1.672868 -11.1071,24.568685 1.8693,-3.96829 14.4829,-0.246977 31.7628,0.02851 47.0672,0.02851 -10.6567,24.199163 -21.1284,47.978513 -31.7634,72.102177 z"
     id="path682"
     inkscape:label="carka"
     sodipodi:nodetypes="cssccscccc" /><path
     fill="#fdfdfd"
     opacity="1"
     stroke="none"
     d="m 1108.4714,67.304807 c -10e-5,11.823902 0.1717,15.816699 -0.1741,27.13623 -0.056,1.82994 -24.0617,24.018753 -24.0617,24.018753 0,0 -0.3192,-0.15224 -27.3259,-0.15226 -27.7287,-3e-5 0.2772,0.17192 -27.5444,0.0702 -0.097,0.035 -24.8798,-22.179373 -24.8997,-23.864513 -0.2367,-19.982201 -0.2374,-24.868449 5e-4,-44.850631 0.02,-1.678389 25.074,-24.354016 25.074,-24.354016 0,0 -0.1286,-0.0067 28.0287,-0.0067 27.0496,2e-6 0.7995,-0.0478 26.9236,-0.004 1.9525,1.119365 23.7495,22.586151 23.8214,24.294997 0.3497,8.320337 0.1576,8.885426 0.1576,17.711835 m -39.0009,-19.364685 c -0.052,-2.491034 0.027,5.889901 -0.1271,3.283809 -7.7286,-0.09917 -17.9756,-0.08893 -25.5601,-0.08893 l 0,41.887303 h 25.6872 c 0,-16.621361 0,-27.826854 -5e-4,-45.082152 z"
     id="path1"
     inkscape:label="krouzek"
     style="display:inline;stroke-width:1.24646"
     sodipodi:nodetypes="cccsccccscccccccccc" /></g><g
   inkscape:label="r v krouzku"
   inkscape:groupmode="layer"
   id="layer1"
   transform="matrix(3.7795276,0,0,3.7795276,950.29798,-49.066211)"><circle
     style="fill:none;fill-opacity:1;stroke:#ffffff;stroke-width:11.1549;stroke-dasharray:none;stroke-opacity:1"
     id="path2"
     cx="157.17955"
     cy="55.179218"
     r="33.916042" /><path
     d="M 156.07363,77.152242 H 144.87379 V 37.873844 h 11.19984 v 7.168346 l 8.22141,-7.168346 h 8.60469 v 11.252448 h -8.79481 l -7.96974,8.036061 z"
     id="text4"
     style="font-size:35.2719px;font-family:Krungthep;-inkscape-font-specification:'Krungthep, Normal';fill:#ffffff;stroke-width:3.0292"
     aria-label="r"
     sodipodi:nodetypes="ccccccccccc" /></g></svg>
